<svg xmlns="http://www.w3.org/2000/svg" xmlns:xlink="http://www.w3.org/1999/xlink" width="500" zoomAndPan="magnify" viewBox="0 0 375 374.999991" height="500" preserveAspectRatio="xMidYMid meet" version="1.0"><defs><g/><clipPath id="771f7be447"><path d="M 111.582031 20.621094 L 263 20.621094 L 263 275.621094 L 111.582031 275.621094 Z M 111.582031 20.621094 " clip-rule="nonzero"/></clipPath><clipPath id="b80e79d68f"><path d="M 111.582031 20.621094 L 263.082031 20.621094 L 263.082031 275.621094 L 111.582031 275.621094 Z M 111.582031 20.621094 " clip-rule="nonzero"/></clipPath></defs><g clip-path="url(#771f7be447)"><path fill="#ffffff" d="M 128.859375 37.578125 C 128.90625 37.191406 128.914062 36.660156 129.023438 36.285156 C 129.15625 35.828125 129.503906 35.285156 129.707031 34.855469 C 129.820312 34.710938 130.074219 34.375 130.074219 34.375 C 129.546875 34.558594 128.804688 34.722656 128.3125 34.992188 C 127.839844 35.25 126.898438 36.097656 126.898438 36.097656 C 126.542969 35.8125 126.105469 35.382812 125.714844 35.148438 C 125.347656 34.929688 124.820312 34.480469 124.410156 34.59375 C 123.949219 34.722656 123.703125 35.46875 123.5 35.902344 C 122.890625 37.199219 122.550781 39.125 122.382812 40.550781 C 122.246094 41.742188 122.101562 43.386719 122.382812 44.554688 C 122.640625 45.617188 123.554688 46.816406 124.035156 47.796875 C 124.785156 49.328125 125.929688 51.320312 126.445312 52.945312 C 126.667969 53.660156 126.839844 54.648438 126.921875 55.390625 C 127.363281 59.382812 126.652344 64.769531 126.921875 68.773438 C 126.980469 69.644531 127.257812 70.789062 127.273438 71.660156 C 127.296875 73.03125 127.125 74.871094 126.835938 76.210938 C 126.226562 79.023438 124.539062 82.523438 123.550781 85.226562 C 122.15625 89.042969 119.933594 94.019531 118.882812 97.949219 C 118.578125 99.09375 118.144531 101.828125 118.144531 101.832031 C 118.65625 101.230469 119.851562 99.832031 119.851562 99.832031 C 119.242188 102.984375 118.222656 107.15625 117.816406 110.34375 C 117.488281 112.933594 117.257812 119.027344 117.257812 119.027344 C 117.628906 118.605469 118.5 117.621094 118.5 117.621094 C 118.347656 118.863281 118.113281 120.519531 117.988281 121.765625 C 117.710938 124.566406 117.375 128.304688 117.328125 131.117188 C 117.277344 134.039062 117.363281 137.949219 117.691406 140.851562 C 117.863281 142.390625 118.609375 145.929688 118.609375 145.929688 C 118.828125 145.464844 119.34375 144.378906 119.34375 144.378906 C 119.480469 145.527344 119.648438 147.066406 119.796875 148.214844 C 120.304688 152.183594 121.027344 157.46875 121.675781 161.414062 C 122.742188 167.878906 124.296875 176.480469 125.746094 182.867188 C 126.183594 184.804688 127.394531 189.28125 127.394531 189.28125 C 127.601562 188.640625 128.078125 187.144531 128.078125 187.144531 C 128.960938 189.964844 130.375 193.660156 131.011719 196.546875 C 131.753906 199.902344 132.234375 204.476562 132.5 207.902344 C 132.871094 212.664062 133.109375 219.050781 132.832031 223.820312 C 132.554688 228.558594 131.667969 234.859375 130.664062 239.5 C 130.316406 241.105469 129.722656 243.226562 129.171875 244.773438 C 128.304688 247.199219 127.304688 250.617188 125.691406 252.625 C 125.230469 253.195312 124.46875 253.871094 123.800781 254.171875 C 122.804688 254.617188 121.257812 254.390625 120.199219 254.648438 C 119.367188 254.851562 118.28125 255.234375 117.503906 255.601562 C 116.636719 256.011719 115.457031 256.59375 114.773438 257.265625 C 114.003906 258.023438 113.261719 259.316406 112.871094 260.320312 C 112.730469 260.683594 112.59375 261.589844 112.59375 261.59375 C 112.894531 261.617188 113.585938 261.671875 113.585938 261.671875 C 113.585938 261.910156 113.691406 262.25 113.585938 262.464844 C 113.480469 262.675781 113.109375 262.761719 112.953125 262.941406 C 112.445312 263.519531 111.804688 265.242188 111.804688 265.242188 C 112.5625 265.527344 113.550781 265.996094 114.335938 266.195312 C 115.671875 266.53125 117.515625 266.679688 118.890625 266.75 C 121.085938 266.863281 124.023438 266.703125 126.21875 266.574219 C 128.648438 266.429688 131.972656 266.539062 134.292969 265.804688 C 135.046875 265.566406 136.03125 265.109375 136.632812 264.59375 C 137.621094 263.738281 138.371094 262.082031 139.09375 260.992188 C 139.960938 259.683594 141.035156 257.882812 141.917969 256.585938 C 142.816406 255.265625 143.9375 253.429688 145.03125 252.265625 C 145.757812 251.492188 147.007812 250.757812 147.746094 249.996094 C 148.65625 249.054688 149.867188 247.734375 150.417969 246.546875 C 151.113281 245.046875 151.109375 242.753906 151.503906 241.148438 C 151.796875 239.964844 152.253906 238.402344 152.636719 237.246094 C 153.175781 235.617188 154.042969 233.5 154.660156 231.902344 C 155.285156 230.277344 156.179688 228.136719 156.773438 226.5 C 157.242188 225.210938 157.78125 223.460938 158.234375 222.167969 C 158.488281 221.441406 158.578125 220.3125 159.109375 219.757812 C 159.34375 219.515625 159.785156 219.269531 160.121094 219.261719 C 160.453125 219.257812 160.832031 219.574219 161.132812 219.714844 C 161.757812 220 162.5625 220.453125 163.203125 220.703125 C 164.132812 221.070312 166.394531 221.671875 166.394531 221.671875 C 166.070312 221.289062 165.59375 220.808594 165.316406 220.390625 C 164.976562 219.878906 164.394531 218.5625 164.394531 218.5625 C 165.234375 219.308594 166.296875 220.375 167.203125 221.042969 C 167.816406 221.492188 169.359375 222.371094 169.359375 222.371094 C 169.292969 222.25 169.183594 222.09375 169.136719 221.964844 C 168.871094 221.261719 168.578125 220.226562 168.730469 219.488281 C 168.78125 219.238281 168.921875 218.882812 169.136719 218.746094 C 169.34375 218.609375 169.722656 218.628906 169.96875 218.675781 C 170.332031 218.746094 170.769531 219.03125 171.070312 219.253906 C 172.167969 220.066406 173.585938 221.367188 174.144531 222.617188 C 174.496094 223.402344 174.527344 224.605469 174.519531 225.464844 C 174.507812 226.386719 174.117188 227.582031 174.050781 228.5 C 173.945312 230.019531 173.921875 232.066406 174.15625 233.570312 C 174.363281 234.894531 174.921875 236.605469 175.417969 237.847656 C 176.160156 239.710938 177.464844 242.058594 178.507812 243.769531 C 179.195312 244.902344 181.023438 247.40625 181.023438 247.40625 C 179.5625 247.179688 177.625 246.785156 176.152344 246.652344 C 174.875 246.535156 173.15625 246.492188 171.871094 246.519531 C 170.042969 246.5625 167.59375 246.6875 165.792969 247.011719 C 164.15625 247.308594 162.023438 247.972656 160.449219 248.519531 C 159.625 248.804688 157.753906 249.613281 157.753906 249.613281 C 158.210938 249.8125 159.273438 250.277344 159.273438 250.277344 C 158.375 250.699219 157.167969 251.226562 156.289062 251.679688 C 155.054688 252.3125 153.402344 253.167969 152.257812 253.949219 C 151.570312 254.417969 150.101562 255.691406 150.097656 255.691406 C 150.84375 255.710938 152.585938 255.761719 152.585938 255.761719 C 150.878906 257.132812 148.554688 258.910156 146.894531 260.335938 C 145.855469 261.230469 143.515625 263.417969 143.515625 263.417969 C 143.980469 263.488281 145.070312 263.65625 145.070312 263.65625 C 144.816406 263.867188 144.519531 264.210938 144.226562 264.367188 C 143.523438 264.734375 142.4375 264.839844 141.65625 264.976562 C 140.617188 265.15625 138.164062 265.355469 138.164062 265.355469 C 138.519531 265.652344 138.960938 266.09375 139.351562 266.34375 C 140.144531 266.84375 141.320312 267.300781 142.207031 267.601562 C 144.011719 268.214844 146.527344 268.695312 148.402344 269.035156 C 149.777344 269.285156 153.011719 269.660156 153.011719 269.660156 C 152.425781 269.855469 151.050781 270.316406 151.050781 270.316406 C 151.507812 270.550781 152.097656 270.914062 152.578125 271.097656 C 153.707031 271.527344 155.316406 271.792969 156.503906 272.03125 C 158.71875 272.476562 161.695312 272.960938 163.945312 273.203125 C 165.683594 273.390625 168.011719 273.5 169.761719 273.558594 C 171.359375 273.617188 175.09375 273.609375 175.09375 273.609375 C 175.101562 273.71875 175.121094 273.96875 175.121094 273.96875 C 176.304688 274.21875 177.867188 274.636719 179.066406 274.804688 C 181.367188 275.125 184.476562 275.1875 186.800781 275.261719 C 191.191406 275.398438 197.050781 275.410156 201.4375 275.261719 C 204.332031 275.164062 208.191406 274.957031 211.070312 274.632812 C 212.898438 274.429688 217.132812 273.6875 217.136719 273.6875 C 216.769531 274.136719 215.910156 275.191406 215.910156 275.191406 C 219.265625 275.140625 223.742188 275.128906 227.097656 275.023438 C 229.921875 274.9375 233.699219 274.925781 236.503906 274.578125 C 239.597656 274.195312 243.726562 273.492188 246.6875 272.515625 C 248.390625 271.953125 250.609375 271 252.132812 270.050781 C 252.933594 269.550781 254.589844 268.082031 254.589844 268.082031 C 254.648438 268.433594 254.78125 269.253906 254.78125 269.253906 C 255.164062 269.003906 255.714844 268.71875 256.066406 268.421875 C 257.148438 267.507812 258.390625 266.042969 259.167969 264.859375 C 259.972656 263.632812 260.800781 261.828125 261.265625 260.4375 C 261.570312 259.515625 261.941406 257.28125 261.941406 257.28125 C 262.054688 257.53125 262.15625 257.902344 262.324219 258.117188 C 262.449219 258.273438 262.839844 258.535156 262.839844 258.535156 C 262.792969 257.28125 262.910156 255.585938 262.679688 254.351562 C 262.476562 253.257812 261.949219 251.855469 261.492188 250.84375 C 260.898438 249.535156 259.894531 247.890625 259.074219 246.710938 C 257.945312 245.089844 256.074219 243.210938 254.878906 241.640625 C 253.207031 239.441406 250.898438 236.535156 249.628906 234.078125 C 249.128906 233.109375 248.421875 231.769531 248.324219 230.683594 C 248.285156 230.28125 248.238281 229.644531 248.507812 229.347656 C 248.703125 229.128906 249.152344 229.074219 249.441406 229.078125 C 249.816406 229.085938 250.617188 229.480469 250.617188 229.480469 C 250.609375 229.277344 250.636719 229.003906 250.589844 228.8125 C 250.351562 227.824219 249.503906 226.703125 248.980469 225.832031 C 248.082031 224.359375 245.734375 221.085938 245.734375 221.085938 C 246.234375 221.164062 247.398438 221.347656 247.398438 221.347656 C 246.609375 219.082031 245.738281 215.984375 244.765625 213.789062 C 243.332031 210.539062 240.992188 206.398438 239.066406 203.414062 C 237.519531 201.023438 235.21875 197.988281 233.386719 195.808594 C 232.109375 194.28125 229.800781 192.710938 228.855469 190.957031 C 228.234375 189.800781 228.261719 187.925781 227.738281 186.722656 C 227.492188 186.164062 227.019531 185.492188 226.683594 184.980469 C 226.007812 183.972656 225.042969 182.675781 224.273438 181.738281 C 223.265625 180.507812 220.707031 177.8125 220.703125 177.8125 C 221.25 177.84375 222.523438 177.917969 222.523438 177.917969 C 221.371094 176.359375 219.84375 174.273438 218.675781 172.726562 C 216.871094 170.335938 214.445312 167.160156 212.589844 164.808594 C 211.367188 163.253906 208.453125 159.675781 208.453125 159.671875 C 208.796875 159.773438 209.25 159.945312 209.605469 160.003906 C 210.042969 160.074219 211.082031 160.058594 211.082031 160.058594 C 209.960938 158.925781 208.441406 157.445312 207.34375 156.289062 C 205.546875 154.394531 203.128906 151.875 201.507812 149.828125 C 199.324219 147.066406 196.652344 143.1875 194.894531 140.136719 C 194.097656 138.753906 193.234375 136.804688 192.546875 135.367188 C 192.289062 134.828125 191.820312 134.152344 191.707031 133.566406 C 191.566406 132.855469 191.582031 131.828125 191.851562 131.152344 C 192.101562 130.519531 192.867188 129.933594 193.300781 129.410156 C 192.667969 128.972656 191.804688 128.410156 191.183594 127.957031 C 190.683594 127.589844 189.546875 126.6875 189.546875 126.6875 C 189.777344 126.601562 190.078125 126.453125 190.324219 126.402344 C 190.839844 126.296875 192.085938 126.332031 192.085938 126.332031 C 191.664062 125.1875 191.214844 123.605469 190.675781 122.511719 C 189.996094 121.132812 187.921875 118.195312 187.921875 118.195312 C 188.769531 118.472656 190.746094 119.113281 190.746094 119.117188 C 189.304688 116.503906 187.378906 113.023438 185.945312 110.410156 C 184.605469 107.972656 182.636719 104.8125 181.496094 102.273438 C 180.304688 99.617188 179.203125 95.878906 178.238281 93.132812 C 177.851562 92.035156 177.394531 90.554688 176.964844 89.476562 C 176.859375 89.207031 176.488281 88.863281 176.578125 88.589844 C 176.625 88.453125 176.824219 88.339844 176.964844 88.3125 C 177.59375 88.191406 178.335938 88.929688 178.957031 89.089844 C 179.972656 89.347656 181.386719 89.503906 182.4375 89.476562 C 183.53125 89.445312 184.976562 89.160156 186.03125 88.867188 C 186.613281 88.703125 187.605469 88.667969 187.910156 88.148438 C 188.144531 87.742188 187.902344 87.035156 187.742188 86.597656 C 187.488281 85.890625 186.761719 85.140625 186.308594 84.546875 C 185.367188 83.320312 184.011719 81.769531 182.992188 80.613281 C 181.679688 79.125 179.742188 77.308594 178.507812 75.753906 C 177.160156 74.058594 175.402344 71.730469 174.453125 69.785156 C 173.738281 68.324219 173.289062 66.171875 172.742188 64.640625 C 172.257812 63.292969 171.621094 61.488281 171.03125 60.183594 C 169.742188 57.339844 167.847656 53.609375 166.105469 51.019531 C 165.347656 49.890625 164.335938 48.316406 163.261719 47.484375 C 162.84375 47.160156 162.167969 46.90625 161.683594 46.691406 C 160.707031 46.257812 159.242188 46.03125 158.363281 45.425781 C 157.828125 45.058594 157.285156 44.359375 156.890625 43.84375 C 155.734375 42.332031 154.632812 40.023438 153.660156 38.390625 C 151.972656 35.550781 149.554688 31.859375 148.023438 28.929688 C 147.289062 27.527344 146.53125 25.539062 145.800781 24.132812 C 145.316406 23.203125 144.960938 21.640625 144.0625 21.105469 C 143.734375 20.914062 143.164062 20.839844 142.808594 20.964844 C 142.316406 21.132812 141.988281 21.859375 141.609375 22.21875 C 141.207031 22.605469 140.601562 23.050781 140.199219 23.441406 C 139.339844 24.277344 138.171875 25.40625 137.519531 26.414062 C 137.105469 27.054688 136.691406 27.996094 136.460938 28.722656 C 136.164062 29.648438 136.027344 30.949219 135.882812 31.914062 C 135.664062 33.382812 135.691406 35.398438 135.308594 36.835938 C 135.164062 37.367188 134.976562 38.121094 134.621094 38.542969 C 134.289062 38.933594 133.660156 39.3125 133.167969 39.449219 C 132.777344 39.558594 132.214844 39.542969 131.820312 39.449219 C 131.363281 39.339844 130.824219 38.980469 130.421875 38.734375 C 129.925781 38.429688 128.859375 37.578125 128.859375 37.578125 Z M 128.859375 37.578125 " fill-opacity="1" fill-rule="evenodd"/></g><g clip-path="url(#b80e79d68f)"><path stroke-linecap="round" transform="matrix(0.418508, 0, 0, 0.419395, -74.069266, -1.393407)" fill="none" stroke-linejoin="round" d="M 785.768295 645.327309 C 785.768295 645.327309 785.450947 643.371369 785.310941 642.533109 C 785.310941 642.533109 781.353432 646.035174 779.440014 647.227366 C 775.799853 649.490669 770.498285 651.763285 766.428771 653.104502 C 759.353792 655.433002 749.488021 657.109523 742.095694 658.022295 C 735.394064 658.851241 726.368331 658.879183 719.620032 659.084091 C 711.602344 659.33557 700.90587 659.363512 692.888182 659.484594 C 692.888182 659.484594 694.941606 656.969813 695.818978 655.898703 C 695.809644 655.898703 685.691863 657.668363 681.32367 658.152691 C 674.444698 658.925753 665.222957 659.419396 658.30665 659.652246 C 647.824853 660.006178 633.824233 659.978236 623.333102 659.652246 C 617.779522 659.47528 610.34986 659.326256 604.852283 658.562507 C 601.986823 658.162005 598.253324 657.165407 595.425199 656.569311 C 595.425199 656.569311 595.37853 655.973215 595.359863 655.712422 C 595.359863 655.712422 586.436801 655.73105 582.619299 655.59134 C 578.43778 655.45163 572.874867 655.190838 568.72135 654.743766 C 563.345112 654.166298 556.232797 653.011362 550.940563 651.949565 C 548.103104 651.381411 544.2576 650.748059 541.560147 649.723519 C 540.412096 649.285761 539.002701 648.419558 537.910652 647.860718 C 537.910652 647.860718 541.196131 646.761666 542.596193 646.295966 C 542.596193 646.295966 534.867851 645.401822 531.582372 644.805725 C 527.102174 643.995407 521.091241 642.849785 516.77905 641.387486 C 514.660289 640.670308 511.850832 639.58057 509.956081 638.388377 C 509.022706 637.792281 507.967993 636.739799 507.118622 636.031935 C 507.118622 636.031935 512.980215 635.556921 515.462992 635.128477 C 517.329741 634.802486 519.924522 634.551008 521.604597 633.675492 C 522.304628 633.302932 523.013993 632.4833 523.620686 631.980344 C 523.620686 631.980344 521.016571 631.579842 519.905855 631.412189 C 519.905855 631.412189 525.496769 626.196348 527.979546 624.063441 C 531.946388 620.66383 537.499967 616.425959 541.578815 613.156744 C 541.578815 613.156744 537.415964 613.035662 535.633218 612.989092 C 535.642552 612.989092 539.152041 609.952727 540.79478 608.835047 C 543.529568 606.972246 547.477743 604.93248 550.427207 603.423611 C 552.5273 602.343187 555.411427 601.085797 557.558189 600.079884 C 557.558189 600.079884 555.01941 598.971518 553.927362 598.496504 C 553.927362 598.496504 558.398226 596.568505 560.367647 595.888583 C 564.129147 594.584623 569.225372 593.001242 573.136212 592.293378 C 577.439069 591.520316 583.291328 591.222268 587.659522 591.119814 C 590.730325 591.054616 594.837173 591.15707 597.889308 591.43649 C 601.408131 591.753166 606.037669 592.69388 609.52849 593.234092 C 609.52849 593.234092 605.160297 587.263817 603.517557 584.562756 C 601.025447 580.483223 597.907976 574.885507 596.134564 570.442728 C 594.949178 567.480875 593.614452 563.401342 593.119764 560.243895 C 592.559739 556.658004 592.615741 551.777466 592.867753 548.154319 C 593.026426 545.965529 593.959801 543.115444 593.987802 540.917339 C 594.00647 538.868259 593.9318 535.999546 593.091762 534.127431 C 591.757037 531.146951 588.368887 528.045388 585.746104 526.108075 C 585.027405 525.577177 583.982026 524.897255 583.113987 524.729603 C 582.525961 524.617835 581.620588 524.571265 581.125899 524.897255 C 580.612543 525.223245 580.276528 526.070819 580.15519 526.666915 C 579.791173 528.427262 580.491204 530.895472 581.125899 532.571993 C 581.237904 532.879355 581.499249 533.251915 581.657923 533.540649 C 581.657923 533.540649 577.971093 531.444999 576.505695 530.373888 C 574.340265 528.781194 571.801486 526.238471 569.794731 524.459497 C 569.794731 524.459497 571.185459 527.598315 571.997495 528.81845 C 572.660191 529.815048 573.798908 530.96067 574.573609 531.873443 C 574.573609 531.873443 569.16937 530.439086 566.947938 529.56357 C 565.417204 528.967474 563.494452 527.88705 562.001052 527.207127 C 561.282354 526.871823 560.37698 526.117389 559.583612 526.126703 C 558.78091 526.145331 557.726196 526.732113 557.166172 527.309581 C 555.896782 528.63217 555.682106 531.323917 555.075412 533.056321 C 553.992698 536.139256 552.704641 540.311929 551.584591 543.38555 C 550.165862 547.288117 548.028434 552.392191 546.535034 556.266816 C 545.060302 560.076243 542.98821 565.124432 541.700153 569.008371 C 540.785446 571.765316 539.693398 575.490917 538.993367 578.31306 C 538.050658 582.141115 538.059992 587.608435 536.398585 591.185012 C 535.082527 594.016469 532.189066 597.164602 530.014303 599.409276 C 528.250224 601.225507 525.263426 602.976539 523.527349 604.820712 C 520.9139 607.596285 518.235114 611.973866 516.088353 615.121999 C 513.978926 618.214248 511.412146 622.508003 509.340054 625.628194 C 507.613311 628.226801 505.821231 632.175938 503.459793 634.215704 C 502.022396 635.445153 499.670292 636.534891 497.868879 637.103045 C 492.324634 638.854078 484.381615 638.593286 478.576025 638.937904 C 473.330459 639.245266 466.311482 639.62714 461.065916 639.357034 C 457.780437 639.189382 453.374909 638.83545 450.182767 638.034445 C 448.306684 637.559431 445.945247 636.441751 444.1345 635.761829 C 444.1345 635.761829 445.665234 631.654354 446.878621 630.275881 C 447.251971 629.847437 448.138677 629.642529 448.390688 629.139573 C 448.642699 628.627303 448.390688 627.816984 448.390688 627.24883 C 448.390688 627.24883 446.738615 627.118434 446.019916 627.06255 C 446.019916 627.053236 446.346598 624.892388 446.682612 624.026185 C 447.615987 621.632487 449.389399 618.549552 451.228147 616.742635 C 452.861553 615.140627 455.680344 613.75284 457.752436 612.77487 C 459.609852 611.899354 462.204633 610.986582 464.192721 610.502253 C 466.722167 609.887529 470.41833 610.427741 472.798436 609.365945 C 474.394506 608.648767 476.214587 607.037444 477.315969 605.6776 C 481.170806 600.890203 483.560246 592.74045 485.632337 586.956455 C 486.948396 583.26811 488.367125 578.210606 489.197828 574.382551 C 491.596601 563.317516 493.715362 548.294029 494.378058 536.996144 C 495.040754 525.623747 494.471395 510.395353 493.584689 499.041583 C 492.949995 490.873203 491.801944 479.966506 490.028532 471.965777 C 488.507131 465.082729 485.128315 456.271683 483.018888 449.546973 C 483.018888 449.546973 481.880171 453.114236 481.385483 454.641732 C 481.385483 454.641732 478.492021 443.967885 477.446641 439.34814 C 473.983821 424.119746 470.26899 403.610312 467.720877 388.195637 C 466.171476 378.788494 464.444732 366.186649 463.231345 356.723622 C 462.876663 353.985305 462.475312 350.315588 462.148631 347.577271 C 462.148631 347.577271 460.916576 350.166564 460.393886 351.274931 C 460.393886 351.274931 458.611141 342.836444 458.200456 339.166727 C 457.416421 332.246423 457.211079 322.923106 457.332417 315.956232 C 457.444422 309.25015 458.247125 300.33665 458.909821 293.65851 C 459.208501 290.687343 459.768525 286.738206 460.132541 283.776353 C 460.132541 283.776353 458.051116 286.123482 457.16441 287.129394 C 457.16441 287.129394 457.715101 272.59955 458.499136 266.424366 C 459.469845 258.82414 461.905953 248.876785 463.362018 241.360385 C 463.362018 241.360385 460.505891 244.694798 459.28317 246.129154 C 459.28317 246.11984 460.319216 239.600038 461.047249 236.871036 C 463.558026 227.501149 468.868928 215.635109 472.201076 206.535329 C 474.562514 200.090039 478.594692 191.744692 480.050757 185.038611 C 480.741454 181.843908 481.152139 177.457012 481.096136 174.187797 C 481.058801 172.110775 480.396105 169.381772 480.256099 167.304749 C 479.612071 157.757897 481.310813 144.913887 480.256099 135.394976 C 480.060091 133.625316 479.649406 131.268873 479.117382 129.564411 C 477.885328 125.689785 475.15054 120.939644 473.35846 117.288555 C 472.21041 114.95074 470.026313 112.091341 469.410286 109.557933 C 468.738256 106.773046 469.083604 102.851851 469.410286 100.01108 C 469.811637 96.611469 470.623673 92.019666 472.079737 88.927417 C 472.565092 87.893562 473.153118 86.114588 474.2545 85.807226 C 475.234543 85.53712 476.494599 86.60823 477.371971 87.129814 C 478.305346 87.688654 479.350726 88.713195 480.200097 89.393117 C 480.200097 89.393117 482.44953 87.371978 483.578913 86.757254 C 484.754965 86.114588 486.528377 85.7234 487.788433 85.285642 C 487.788433 85.285642 487.181739 86.086646 486.911061 86.431264 C 486.425706 87.455804 485.595002 88.750451 485.277655 89.840189 C 485.01631 90.734333 484.997642 92.001038 484.885638 92.923124 C 484.885638 92.923124 487.43375 94.953577 488.619136 95.680069 C 489.580512 96.266851 490.868569 97.123739 491.960617 97.384531 C 492.903326 97.608067 494.247385 97.645323 495.18076 97.384531 C 496.356812 97.058541 497.859545 96.155083 498.652914 95.223683 C 499.502285 94.21777 499.950305 92.420168 500.295653 91.153463 C 501.21036 87.72591 501.145024 82.919885 501.667714 79.41782 C 502.013063 77.117261 502.339744 74.015698 503.049109 71.80828 C 503.5998 70.075875 504.589177 67.831201 505.578554 66.303704 C 507.13729 63.900692 509.92808 61.208945 511.981504 59.215748 C 512.94288 58.284348 514.389611 57.222552 515.350987 56.300465 C 516.25636 55.443577 517.040395 53.711173 518.216447 53.31067 C 519.065818 53.012622 520.428545 53.189588 521.212579 53.645975 C 523.359341 54.921993 524.208712 58.647594 525.366097 60.864327 C 527.111507 64.217368 528.922254 68.958195 530.676999 72.301922 C 534.335827 79.287424 540.113416 88.089157 544.145595 94.860436 C 546.469698 98.75369 549.101814 104.258265 551.864603 107.862784 C 552.807312 109.092233 554.104703 110.759439 555.383426 111.634955 C 557.483519 113.078626 560.983674 113.618838 563.317111 114.652692 C 564.474495 115.164962 566.089233 115.770373 567.087944 116.543435 C 569.654725 118.527317 572.072165 122.28086 573.882912 124.972607 C 578.045763 131.147791 582.57263 140.042664 585.652766 146.823257 C 587.062162 149.934134 588.583563 154.237204 589.740947 157.450535 C 591.047672 161.101624 592.121053 166.233639 593.829128 169.717076 C 596.097229 174.355449 600.297415 179.906595 603.517557 183.948872 C 606.467021 187.655845 611.09656 191.986857 614.232699 195.535492 C 616.668806 198.292436 619.907617 201.990095 622.15705 204.914692 C 623.239764 206.330421 624.975841 208.118709 625.582535 209.804544 C 625.965218 210.847712 626.54391 212.533546 625.983886 213.502203 C 625.255853 214.740965 622.885082 214.824791 621.494354 215.215979 C 618.974242 215.914529 615.520756 216.594452 612.907307 216.668964 C 610.396529 216.734162 607.017712 216.361602 604.590938 215.746877 C 603.106873 215.365003 601.333461 213.604657 599.830728 213.893391 C 599.494713 213.958589 599.018692 214.228695 598.906687 214.554685 C 598.69201 215.206665 599.578716 216.026297 599.830728 216.668964 C 600.85744 219.239628 601.949488 222.769635 602.873529 225.38687 C 605.178964 231.934614 607.811081 240.848115 610.657874 247.181636 C 613.383328 253.235738 618.087536 260.770766 621.289011 266.582704 C 624.714496 272.813772 629.316033 281.112548 632.760186 287.343616 C 632.760186 287.334302 628.03731 285.806806 626.011887 285.145511 C 626.011887 285.145511 630.968106 292.149641 632.592178 295.437484 C 633.880235 298.045405 634.953616 301.817576 635.961661 304.546579 C 635.961661 304.546579 632.984196 304.462753 631.752141 304.714231 C 631.164115 304.835313 630.445417 305.189245 629.894725 305.394153 C 629.894725 305.394153 632.610846 307.545688 633.805565 308.421204 C 635.289631 309.501628 637.352389 310.842845 638.864456 311.886013 C 637.82841 313.13409 635.998996 314.53119 635.401636 316.040058 C 634.757607 317.651381 634.720273 320.100964 635.056287 321.796112 C 635.326966 323.193212 636.447016 324.804535 637.063043 326.089867 C 638.705782 329.51742 640.76854 334.165108 642.672625 337.462265 C 646.872811 344.736501 653.257093 353.985305 658.474658 360.570305 C 662.348163 365.450843 668.125752 371.458374 672.419275 375.975666 C 675.042058 378.73261 678.672885 382.262618 681.351671 384.963678 C 681.351671 384.963678 678.868894 385.000934 677.823515 384.833282 C 676.974144 384.693572 675.891429 384.283756 675.070059 384.041592 C 675.070059 384.050906 682.033034 392.582532 684.954497 396.289506 C 689.388027 401.896535 695.184283 409.468819 699.496474 415.168989 C 702.287265 418.857334 705.936759 423.831012 708.690215 427.547299 C 708.690215 427.547299 705.647413 427.370333 704.340689 427.295821 C 704.350023 427.295821 710.463627 433.722482 712.871733 436.656393 C 714.710481 438.891754 717.015917 441.984003 718.630655 444.387015 C 719.433357 445.60715 720.56274 447.209158 721.150766 448.541061 C 722.401489 451.409773 722.336152 455.880495 723.820218 458.63744 C 726.078985 462.819427 731.595229 466.563656 734.647364 470.205431 C 739.024891 475.402644 744.522468 482.639624 748.218632 488.339794 C 752.820169 495.455692 758.411083 505.328535 761.836568 513.077785 C 764.160671 518.312255 766.242097 525.698259 768.127513 531.10038 C 768.127513 531.10038 765.346057 530.662622 764.151337 530.476342 C 764.151337 530.476342 769.760919 538.281477 771.907681 541.792856 C 773.158403 543.869878 775.183826 546.542997 775.753184 548.89944 C 775.865189 549.355826 775.799853 550.007806 775.818521 550.492134 C 775.818521 550.492134 773.905103 549.55142 773.009063 549.532792 C 772.318366 549.523478 771.244985 549.653874 770.778297 550.175458 C 770.134269 550.883322 770.246274 552.401505 770.339611 553.360847 C 770.572955 555.95014 772.262363 559.144843 773.457083 561.454715 C 776.49055 567.313223 782.006795 574.242841 786.001638 579.486624 C 788.857765 583.230854 793.328629 587.710889 796.026082 591.5762 C 797.986169 594.389029 800.384942 598.310224 801.803671 601.430415 C 802.89572 603.842742 804.155775 607.186468 804.64113 609.794389 C 805.191821 612.737614 804.911809 616.779891 805.023814 619.769686 C 805.023814 619.769686 804.090439 619.145648 803.791759 618.773088 C 803.390408 618.260818 803.147731 617.375987 802.877052 616.779891 C 802.877052 616.779891 801.990346 622.107501 801.262314 624.305605 C 800.151598 627.62139 798.172844 631.92446 796.250092 634.849056 C 794.392676 637.671199 791.424545 641.16395 788.839097 643.343427 C 787.99906 644.051291 786.683002 644.731213 785.768295 645.327309 M 486.911061 86.431264 L 486.911061 86.431264 M 638.864456 311.886013 L 638.864456 311.886013 M 484.885638 92.923124 L 484.885638 92.923124 " stroke="#000000" stroke-width="1" stroke-opacity="1" stroke-miterlimit="4"/></g><g fill="#000000" fill-opacity="0.4"><g transform="translate(152.336267, 344.045205)"><g><path d="M 0 -58.789062 L 0 -58.113281 L 2.109375 -56.078125 L 2.109375 -52.691406 L 3.988281 -52.769531 L 3.988281 -44.9375 L 11.292969 -48.027344 L 11.292969 -50.8125 C 11.292969 -50.8125 11.214844 -52.769531 13.097656 -52.691406 C 14.226562 -52.691406 14.527344 -51.941406 14.679688 -51.335938 L 14.679688 -6.171875 L 12.121094 -6.171875 L 12.195312 -2.632812 L 10.085938 -0.675781 L 10.085938 0 L 32.292969 0 L 32.292969 -0.675781 L 30.183594 -2.632812 L 30.183594 -6.171875 L 27.476562 -6.171875 L 27.398438 -50.507812 C 27.398438 -50.507812 27.175781 -52.769531 29.054688 -52.769531 C 30.9375 -52.769531 30.863281 -50.886719 30.863281 -50.886719 L 30.863281 -48.027344 L 38.390625 -44.789062 L 38.390625 -52.691406 L 40.273438 -52.691406 L 40.347656 -56.078125 L 42.378906 -58.035156 L 42.378906 -58.789062 Z M 0 -58.789062 "/></g></g></g><g fill="#000000" fill-opacity="0.4"><g transform="translate(196.592911, 344.045205)"><g><path d="M 31.011719 -29.28125 C 30.410156 -29.28125 29.660156 -29.433594 28.980469 -29.660156 C 28.753906 -29.808594 13.851562 -40.574219 13.851562 -40.648438 L 13.851562 -50.886719 C 13.851562 -51.714844 14.453125 -52.769531 15.957031 -52.769531 C 17.238281 -52.769531 17.914062 -51.640625 17.992188 -51.1875 L 17.992188 -45.242188 L 30.410156 -37.335938 L 30.410156 -50.433594 C 30.410156 -51.640625 30.863281 -52.769531 31.691406 -53.445312 L 31.765625 -53.597656 L 31.691406 -54.648438 L 31.390625 -54.949219 L 31.3125 -54.949219 C 29.132812 -55.101562 27.324219 -56.605469 27.023438 -58.488281 L 26.722656 -58.714844 L 5.570312 -58.640625 C 5.417969 -58.640625 5.34375 -58.640625 5.269531 -58.5625 C 5.195312 -58.488281 5.117188 -58.339844 5.117188 -58.261719 C 5.195312 -58.113281 5.195312 -58.035156 5.195312 -57.960938 C 5.195312 -55.929688 3.085938 -54.199219 0.675781 -54.425781 C 0.675781 -54.425781 0.0742188 -54.574219 0 -54.121094 C 0 -53.820312 0 -53.519531 0.152344 -53.445312 C 1.203125 -52.617188 1.355469 -51.335938 1.355469 -49.984375 L 1.355469 -43.28125 C 1.128906 -40.273438 1.503906 -36.960938 0.0742188 -35.304688 L 0 -35.152344 L 0 -34.925781 C 0 -34.851562 0 -34.777344 0.0742188 -34.777344 L 0.675781 -34.097656 C 0.828125 -34.023438 0.828125 -34.023438 0.902344 -34.023438 C 1.503906 -34.023438 2.257812 -33.796875 3.011719 -33.496094 C 5.195312 -32.066406 17.839844 -23.109375 17.839844 -23.109375 L 17.839844 -8.128906 C 17.839844 -6.925781 15.882812 -5.644531 14.828125 -6.699219 C 14.378906 -7.074219 14.152344 -7.753906 14.152344 -8.203125 L 14.152344 -15.957031 L 1.203125 -24.464844 L 1.203125 -8.054688 C 1.203125 -6.699219 1.054688 -5.496094 0.0742188 -4.816406 L 0 -4.667969 L 0 -4.066406 L 0.300781 -3.765625 L 0.601562 -3.765625 C 2.785156 -3.539062 4.589844 -2.03125 4.894531 -0.226562 L 5.195312 0 L 26.722656 0 L 26.949219 -0.226562 L 26.949219 -0.675781 C 26.949219 -2.710938 28.832031 -4.214844 31.539062 -3.914062 L 31.839844 -4.140625 L 31.839844 -4.816406 L 31.765625 -4.96875 C 30.789062 -5.871094 30.109375 -7.152344 30.183594 -8.507812 L 30.335938 -23.261719 C 30.5625 -25.140625 30.863281 -26.949219 31.839844 -27.925781 L 31.917969 -28.078125 L 31.917969 -28.453125 L 31.238281 -29.207031 Z M 31.011719 -29.28125 "/></g></g></g><g fill="#ffffff" fill-opacity="1"><g transform="translate(148.207487, 342.460303)"><g><path d="M 0 -58.789062 L 0 -58.113281 L 2.109375 -56.078125 L 2.109375 -52.691406 L 3.988281 -52.769531 L 3.988281 -44.9375 L 11.292969 -48.027344 L 11.292969 -50.8125 C 11.292969 -50.8125 11.214844 -52.769531 13.097656 -52.691406 C 14.226562 -52.691406 14.527344 -51.941406 14.679688 -51.335938 L 14.679688 -6.171875 L 12.121094 -6.171875 L 12.195312 -2.632812 L 10.085938 -0.675781 L 10.085938 0 L 32.292969 0 L 32.292969 -0.675781 L 30.183594 -2.632812 L 30.183594 -6.171875 L 27.476562 -6.171875 L 27.398438 -50.507812 C 27.398438 -50.507812 27.175781 -52.769531 29.054688 -52.769531 C 30.9375 -52.769531 30.863281 -50.886719 30.863281 -50.886719 L 30.863281 -48.027344 L 38.390625 -44.789062 L 38.390625 -52.691406 L 40.273438 -52.691406 L 40.347656 -56.078125 L 42.378906 -58.035156 L 42.378906 -58.789062 Z M 0 -58.789062 "/></g></g></g><g fill="#ffffff" fill-opacity="1"><g transform="translate(192.464132, 342.460303)"><g><path d="M 31.011719 -29.28125 C 30.410156 -29.28125 29.660156 -29.433594 28.980469 -29.660156 C 28.753906 -29.808594 13.851562 -40.574219 13.851562 -40.648438 L 13.851562 -50.886719 C 13.851562 -51.714844 14.453125 -52.769531 15.957031 -52.769531 C 17.238281 -52.769531 17.914062 -51.640625 17.992188 -51.1875 L 17.992188 -45.242188 L 30.410156 -37.335938 L 30.410156 -50.433594 C 30.410156 -51.640625 30.863281 -52.769531 31.691406 -53.445312 L 31.765625 -53.597656 L 31.691406 -54.648438 L 31.390625 -54.949219 L 31.3125 -54.949219 C 29.132812 -55.101562 27.324219 -56.605469 27.023438 -58.488281 L 26.722656 -58.714844 L 5.570312 -58.640625 C 5.417969 -58.640625 5.34375 -58.640625 5.269531 -58.5625 C 5.195312 -58.488281 5.117188 -58.339844 5.117188 -58.261719 C 5.195312 -58.113281 5.195312 -58.035156 5.195312 -57.960938 C 5.195312 -55.929688 3.085938 -54.199219 0.675781 -54.425781 C 0.675781 -54.425781 0.0742188 -54.574219 0 -54.121094 C 0 -53.820312 0 -53.519531 0.152344 -53.445312 C 1.203125 -52.617188 1.355469 -51.335938 1.355469 -49.984375 L 1.355469 -43.28125 C 1.128906 -40.273438 1.503906 -36.960938 0.0742188 -35.304688 L 0 -35.152344 L 0 -34.925781 C 0 -34.851562 0 -34.777344 0.0742188 -34.777344 L 0.675781 -34.097656 C 0.828125 -34.023438 0.828125 -34.023438 0.902344 -34.023438 C 1.503906 -34.023438 2.257812 -33.796875 3.011719 -33.496094 C 5.195312 -32.066406 17.839844 -23.109375 17.839844 -23.109375 L 17.839844 -8.128906 C 17.839844 -6.925781 15.882812 -5.644531 14.828125 -6.699219 C 14.378906 -7.074219 14.152344 -7.753906 14.152344 -8.203125 L 14.152344 -15.957031 L 1.203125 -24.464844 L 1.203125 -8.054688 C 1.203125 -6.699219 1.054688 -5.496094 0.0742188 -4.816406 L 0 -4.667969 L 0 -4.066406 L 0.300781 -3.765625 L 0.601562 -3.765625 C 2.785156 -3.539062 4.589844 -2.03125 4.894531 -0.226562 L 5.195312 0 L 26.722656 0 L 26.949219 -0.226562 L 26.949219 -0.675781 C 26.949219 -2.710938 28.832031 -4.214844 31.539062 -3.914062 L 31.839844 -4.140625 L 31.839844 -4.816406 L 31.765625 -4.96875 C 30.789062 -5.871094 30.109375 -7.152344 30.183594 -8.507812 L 30.335938 -23.261719 C 30.5625 -25.140625 30.863281 -26.949219 31.839844 -27.925781 L 31.917969 -28.078125 L 31.917969 -28.453125 L 31.238281 -29.207031 Z M 31.011719 -29.28125 "/></g></g></g></svg>